<svg height="15.245" viewBox="0 0 22 15.245" width="22" xmlns="http://www.w3.org/2000/svg">
    <g fill="#474747">
        <path
            d="m21.869 87.01-3.169-7.91a1.747 1.747 0 0 0 -2.308-.987l-7.614 3.051h-7a1.778 1.778 0 0 0 -1.778 1.775v8.518a1.778 1.778 0 0 0 1.775 1.775h14.91a1.778 1.778 0 0 0 1.775-1.775v-1.169l2.421-.97a1.757 1.757 0 0 0 .988-2.308zm-4.118 4.452a1.07 1.07 0 0 1 -1.065 1.065h-14.911a1.065 1.065 0 0 1 -1.065-1.065v-5.327h17.04zm0-6.037h-17.041v-1.425h17.04zm0-2.131h-17.041v-.355a1.065 1.065 0 0 1 1.065-1.065h14.91a1.065 1.065 0 0 1 1.065 1.065zm2.867 5.365-2.157.862v-6.582a1.778 1.778 0 0 0 -1.775-1.775h-6l5.967-2.39a1.056 1.056 0 0 1 1.386.593l3.17 7.907a1.1 1.1 0 0 1 -.592 1.386z"
            transform="translate(0 -77.988)" />
        <path d="m0 0h4.616v.71h-4.616z" transform="translate(1.775 9.923)" />
        <path d="m0 0h7.102v.71h-7.102z" transform="translate(1.775 12.409)" />
        <path
            d="m289.741 331.734a1.392 1.392 0 0 1 -1.42 0 2.246 2.246 0 1 0 1.42 0zm0 2.131a1.05 1.05 0 0 1 -.71-.4 1.089 1.089 0 0 1 -.71.4.71.71 0 0 1 0-1.42 1.1 1.1 0 0 1 .71.4 1.116 1.116 0 0 1 .71-.4.71.71 0 0 1 0 1.42z"
            transform="translate(-274.476 -320.746)" />
    </g>
</svg>