<svg height="18.511" viewBox="0 0 18.512 18.511" width="18.512" xmlns="http://www.w3.org/2000/svg">
    <g fill="#474747" transform="translate(.001)">
        <path
            d="m9.249 19.826a.383.383 0 0 1 -.178-.044l-8.864-4.627a.386.386 0 0 1 -.207-.342v-8.677a.385.385 0 0 1 .558-.345l8.864 4.435a.386.386 0 0 1 .213.345v8.87a.386.386 0 0 1 -.186.33.38.38 0 0 1 -.2.055zm-8.478-5.247 8.093 4.221v-8l-8.093-4.04z"
            transform="translate(0 -1.315)" />
        <path
            d="m11.894 19.826a.385.385 0 0 1 -.386-.386v-8.87a.386.386 0 0 1 .213-.345l8.864-4.435a.386.386 0 0 1 .558.345v8.677a.386.386 0 0 1 -.207.342l-8.864 4.628a.383.383 0 0 1 -.178.044zm.386-9.017v8l8.092-4.225v-7.824zm8.478 4h.008z"
            transform="translate(-2.632 -1.315)" />
        <path
            d="m.385 5.206a.385.385 0 0 1 -.173-.73l8.877-4.435a.387.387 0 0 1 .345 0l8.866 4.435a.386.386 0 0 1 -.345.69l-8.693-4.349-8.704 4.349a.384.384 0 0 1 -.173.041z" />
        <path
            d="m15.257 12.2a.386.386 0 0 1 -.386-.386v-4l-8.65-4.334a.386.386 0 0 1 .346-.69l8.863 4.435a.388.388 0 0 1 .213.346v4.242a.386.386 0 0 1 -.386.386z"
            transform="translate(-1.374 -.629)" />
    </g>
</svg>