<svg height="16.546" viewBox="0 0 15.877 16.546" width="15.877" xmlns="http://www.w3.org/2000/svg">
    <g fill="#474747">
        <path
            d="m25.47 8.486a.485.485 0 0 1 0-.429l.617-1.262a1.436 1.436 0 0 0 -.62-1.907l-1.241-.659a.485.485 0 0 1 -.252-.347l-.242-1.382a1.436 1.436 0 0 0 -1.623-1.179l-1.391.2a.485.485 0 0 1 -.408-.132l-1.01-.983a1.436 1.436 0 0 0 -2.006 0l-1.01.977a.485.485 0 0 1 -.408.132l-1.391-.2a1.436 1.436 0 0 0 -1.622 1.185l-.243 1.382a.485.485 0 0 1 -.252.347l-1.241.659a1.436 1.436 0 0 0 -.62 1.907l.617 1.262a.485.485 0 0 1 0 .429l-.617 1.262a1.436 1.436 0 0 0 .62 1.907l1.241.659a.485.485 0 0 1 .252.347l.243 1.384a1.436 1.436 0 0 0 1.416 1.193 1.476 1.476 0 0 0 .207-.015l1.391-.2a.485.485 0 0 1 .408.132l1.01.977a1.436 1.436 0 0 0 2.006 0l1.01-.977a.485.485 0 0 1 .408-.132l1.391.2a1.436 1.436 0 0 0 1.623-1.179l.243-1.384a.485.485 0 0 1 .252-.347l1.241-.659a1.436 1.436 0 0 0 .62-1.907zm-.45 2.327-1.241.659a1.433 1.433 0 0 0 -.745 1.025l-.243 1.384a.486.486 0 0 1 -.549.4l-1.391-.2a1.433 1.433 0 0 0 -1.2.391l-1.01.977a.486.486 0 0 1 -.679 0l-1.01-.977a1.432 1.432 0 0 0 -1-.406 1.465 1.465 0 0 0 -.205.015l-1.391.2a.486.486 0 0 1 -.549-.4l-.247-1.381a1.433 1.433 0 0 0 -.745-1.025l-1.241-.659a.486.486 0 0 1 -.21-.645l.618-1.271a1.433 1.433 0 0 0 0-1.267l-.617-1.262a.486.486 0 0 1 .21-.645l1.241-.659a1.433 1.433 0 0 0 .745-1.025l.239-1.379a.486.486 0 0 1 .549-.4l1.391.2a1.433 1.433 0 0 0 1.2-.391l1.01-.977a.486.486 0 0 1 .679 0l1.01.977a1.433 1.433 0 0 0 1.2.391l1.391-.2a.486.486 0 0 1 .549.4l.243 1.384a1.433 1.433 0 0 0 .745 1.025l1.241.659a.486.486 0 0 1 .21.645l-.617 1.262a1.433 1.433 0 0 0 0 1.267l.617 1.262a.486.486 0 0 1 -.198.646z"
            transform="translate(-10.359 .002)" />
        <path
            d="m150.9 143.931a.477.477 0 0 0 -.675 0l-6.3 6.3a.477.477 0 1 0 .675.675l6.3-6.3a.477.477 0 0 0 0-.675z"
            transform="translate(-139.479 -139.144)" />
        <path
            d="m144.552 123.116a1.75 1.75 0 1 0 1.75 1.75 1.752 1.752 0 0 0 -1.75-1.75zm0 2.545a.8.8 0 1 1 .8-.8.8.8 0 0 1 -.8.8z"
            transform="translate(-138.522 -119.137)" />
        <path
            d="m262.672 280.61a1.75 1.75 0 1 0 1.75 1.75 1.752 1.752 0 0 0 -1.75-1.75zm0 2.545a.8.8 0 1 1 .8-.8.8.8 0 0 1 -.8.8z"
            transform="translate(-252.825 -271.541)" />
    </g>
</svg>