<svg height="18.653" viewBox="0 0 18.659 18.653" width="18.659" xmlns="http://www.w3.org/2000/svg">
    <path
        d="m16.143 0h-13.627a2.512 2.512 0 0 0 -2.516 2.516v13.627a2.511 2.511 0 0 0 2.516 2.51h6.72l.011-6.668h-1.734a.415.415 0 0 1 -.413-.405v-2.151a.409.409 0 0 1 .411-.411h1.724v-2.076a3.392 3.392 0 0 1 3.622-3.719h1.763a.409.409 0 0 1 .411.411v1.814a.409.409 0 0 1 -.411.411h-1.084c-1.169 0-1.4.553-1.4 1.369v1.8h2.567a.407.407 0 0 1 .405.456l-.257 2.151a.407.407 0 0 1 -.405.359h-2.3v6.663h4a2.516 2.516 0 0 0 2.516-2.516v-13.625a2.52 2.52 0 0 0 -2.519-2.516zm0 0"
        fill="#475993" />
</svg>