<svg enable-background="new 0 0 122.881 122.88" height="122.88" viewBox="0 0 122.881 122.88"
    width="122.881" xmlns="http://www.w3.org/2000/svg">
    <path clip-rule="evenodd"
        d="m61.44 0c33.933 0 61.441 27.507 61.441 61.439 0 33.933-27.508 61.44-61.441 61.44-33.932.001-61.44-27.507-61.44-61.44 0-33.932 27.508-61.439 61.44-61.439zm20.279 36.226c1.363-1.363 3.572-1.363 4.936 0 1.363 1.363 1.363 3.573 0 4.936l-20.28 20.277 20.279 20.278c1.363 1.363 1.363 3.573 0 4.937-1.363 1.362-3.572 1.362-4.936 0l-20.278-20.278-20.278 20.278c-1.362 1.362-3.573 1.362-4.936 0-1.363-1.363-1.363-3.573 0-4.937l20.278-20.278-20.278-20.277c-1.363-1.363-1.363-3.573 0-4.936s3.573-1.363 4.936 0l20.278 20.278z"
        fill-rule="evenodd" />
</svg>