<svg height="19.147" id="_004-high-heels" viewBox="0 0 24.065 19.147" width="24.065"
    xmlns="http://www.w3.org/2000/svg">
    <defs>
        <style>
            .cls-1{fill:#474747}
        </style>
    </defs>
    <path class="cls-1" d="M432.462 348.8a.47.47 0 1 0-.47-.47.47.47 0 0 0 .47.47zm0 0"
        id="Path_2192" transform="translate(-411.688 -331.529)" />
    <path class="cls-1"
        d="M.111 7.44a5.172 5.172 0 0 0 .548 1.493 9.213 9.213 0 0 1 1.219 4.441v5.8a.47.47 0 0 0 .47.47h1.88a.47.47 0 0 0 .47-.47v-5.243a7.091 7.091 0 0 1 .702-3.076l.043-.069a18.8 18.8 0 0 1 5.17 6.858 3.317 3.317 0 0 0 3.021 2h3.844a28.2 28.2 0 0 0 4.4-.225c.539-.093 2.18-.375 2.18-1.655a4.456 4.456 0 0 0-1.528-2.677 6.963 6.963 0 0 0-3.721-1.925.47.47 0 0 0-.383.116 3.561 3.561 0 0 1-2.165.722 3.29 3.29 0 0 1-2.772-1.495.5.5 0 0 0-.03-.048l-3.138-4.472A36.27 36.27 0 0 0 3.431.6a.47.47 0 0 0-.589 0 7.681 7.681 0 0 0-1.819 2.08 6.851 6.851 0 0 0-.915 4.746v.014zm3.646 6.492v4.774h-.94v-5.333c0-.141 0-.294-.013-.452A10.955 10.955 0 0 0 1.331 8.18a18.781 18.781 0 0 1 3.374 2.02 7.639 7.639 0 0 0-.948 3.733zM1.83 3.161a6.715 6.715 0 0 1 1.309-1.582 35.328 35.328 0 0 1 6.412 6.945l3.122 4.454a4.239 4.239 0 0 0 3.588 1.966 4.681 4.681 0 0 0 2.618-.818 6.1 6.1 0 0 1 3 1.635 3.708 3.708 0 0 1 1.243 2c0 .4-.761.619-1.4.729a27.532 27.532 0 0 1-4.241.212h-3.842a2.376 2.376 0 0 1-2.161-1.44A19.729 19.729 0 0 0 .989 7a6 6 0 0 1 .841-3.839zm0 0"
        id="Path_2193" transform="translate(.001 -.499)" />
    <path class="cls-1" d="M280.45 348.8h5.265a.47.47 0 0 0 0-.94h-5.265a.47.47 0 1 0 0 .94zm0 0"
        id="Path_2194" transform="translate(-266.821 -331.529)" />
</svg>
