<svg height="18.659" viewBox="0 0 18.659 18.659" width="18.659" xmlns="http://www.w3.org/2000/svg">
    <path
        d="m22.477 11.5h-.751v-.038h-8.4v3.738h5.274a5.6 5.6 0 1 1 -1.56-6.046l2.639-2.639a9.308 9.308 0 1 0 2.8 4.991z"
        fill="#ffc107" transform="translate(-4 -4)" />
    <path
        d="m6.3 8.987 3.067 2.249a5.585 5.585 0 0 1 8.9-2.086l2.639-2.639a9.311 9.311 0 0 0 -14.606 2.476z"
        fill="#ff3d00" transform="translate(-5.23 -4)" />
    <path
        d="m14.5 35.493a9.291 9.291 0 0 0 6.255-2.422l-2.888-2.444a5.583 5.583 0 0 1 -8.63-2.573l-3.037 2.346a9.322 9.322 0 0 0 8.3 5.093z"
        fill="#4caf50" transform="translate(-5.171 -16.834)" />
    <path
        d="m33.147 20.038h-.747v-.038h-8.4v3.732h5.273a5.623 5.623 0 0 1 -1.908 2.6l2.888 2.444a9.031 9.031 0 0 0 3.074-6.908 9.307 9.307 0 0 0 -.18-1.83z"
        fill="#1976d2" transform="translate(-14.671 -12.536)" />
</svg>