<svg height="19.573" viewBox="0 0 22 19.573" width="22" xmlns="http://www.w3.org/2000/svg">
    <path
        d="M11 19.573a1.29 1.29 0 0 1-.85-.32c-.889-.777-1.746-1.507-2.5-2.152a46.524 46.524 0 0 1-5.462-5.127A8.189 8.189 0 0 1 0 6.612a6.876 6.876 0 0 1 1.745-4.7A5.916 5.916 0 0 1 6.146 0 5.534 5.534 0 0 1 9.6 1.193a7.072 7.072 0 0 1 1.4 1.46 7.073 7.073 0 0 1 1.4-1.459A5.534 5.534 0 0 1 15.854 0a5.916 5.916 0 0 1 4.4 1.915A6.876 6.876 0 0 1 22 6.612a8.188 8.188 0 0 1-2.182 5.36 46.519 46.519 0 0 1-5.461 5.128c-.757.645-1.616 1.377-2.506 2.156a1.291 1.291 0 0 1-.85.319zM6.146 1.289a4.641 4.641 0 0 0-3.453 1.5 5.593 5.593 0 0 0-1.4 3.823 6.89 6.89 0 0 0 1.886 4.538 45.783 45.783 0 0 0 5.301 4.968c.759.647 1.619 1.38 2.514 2.163.9-.784 1.762-1.519 2.523-2.166a45.794 45.794 0 0 0 5.305-4.968 6.89 6.89 0 0 0 1.885-4.538 5.593 5.593 0 0 0-1.4-3.823 4.641 4.641 0 0 0-3.453-1.5 4.274 4.274 0 0 0-2.668.924A6.253 6.253 0 0 0 11.7 3.933a.813.813 0 0 1-1.4 0 6.248 6.248 0 0 0-1.486-1.72 4.274 4.274 0 0 0-2.668-.924zm0 0"
        fill="#474747" />
</svg>
