<svg height="24.036" viewBox="0 0 16.224 24.036" width="16.224" xmlns="http://www.w3.org/2000/svg">
    <path
        d="M90.089 17.134a1.664 1.664 0 0 1-1.432-.8.4.4 0 1 0-.684.417 2.473 2.473 0 0 0 .838.835l-.411 1.88-1-1.153a.4.4 0 1 0-.584-.55l-.7.81-1.783-1.973a2.447 2.447 0 0 0 .269-.94 5.364 5.364 0 0 0 6.869-5.141V7.211a.4.4 0 1 0-.8 0v3.311a4.557 4.557 0 0 1-9.114 0v-3.4a2.262 2.262 0 0 0 2.1-1.78 13.7 13.7 0 0 0 5.5 2.035.4.4 0 0 0 .111-.793 12.91 12.91 0 0 1-5.68-2.254.4.4 0 0 0-.632.33 1.823 1.823 0 0 1-.756 1.456 1.649 1.649 0 0 1-1.042.193.4.4 0 0 0-.4.354v3.206a.827.827 0 0 1-.451-.733v-4.88a.952.952 0 0 1 .951-.951.4.4 0 0 0 .372-.252A3.565 3.565 0 0 1 84.953.8h3.435a3.586 3.586 0 0 1 3.582 3.582v4.755a.4.4 0 1 0 .8 0V4.384A4.389 4.389 0 0 0 88.388 0h-3.435a4.361 4.361 0 0 0-3.97 2.525A1.755 1.755 0 0 0 79.5 4.256v4.88a1.635 1.635 0 0 0 1.256 1.583 5.366 5.366 0 0 0 3.05 4.639v.106a1.671 1.671 0 0 1-1.674 1.67A4.132 4.132 0 0 0 78 21.269v2.366a.4.4 0 1 0 .8 0v-2.366a3.332 3.332 0 0 1 3.334-3.334 2.5 2.5 0 0 0 .523-.056l.559 2.537a.4.4 0 0 0 .694.176l.789-.909-.488 3.9a.4.4 0 0 0 .8.1l.564-4.509c.025.028.248.278.277.3a.4.4 0 0 0 .564-.035l.24-.276.565 4.517a.4.4 0 0 0 .8-.1l-.488-3.9.789.909a.4.4 0 0 0 .694-.176l.559-2.537a2.516 2.516 0 0 0 .523.056 3.332 3.332 0 0 1 3.334 3.334v2.366a.4.4 0 0 0 .8 0v-2.363a4.132 4.132 0 0 0-4.135-4.135zm-6.261 2.332l-.415-1.885a2.487 2.487 0 0 0 .428-.328l.971 1.079z"
        fill="#474747" transform="translate(-78)" />
</svg>
