<svg height="22.7" viewBox="0 0 16.367 22.7" width="16.367" xmlns="http://www.w3.org/2000/svg">
    <g fill="#474747">
        <path
            d="m80 9.654v-3.595a6.028 6.028 0 0 0 -1.8-4.331 5.836 5.836 0 0 0 -4.147-1.728h-.077a6.045 6.045 0 0 0 -6.011 6.059v3.595a2.455 2.455 0 0 0 -2.165 2.468v8.078a2.487 2.487 0 0 0 2.469 2.5h11.431a2.487 2.487 0 0 0 2.469-2.5v-8.078a2.466 2.466 0 0 0 -2.169-2.468zm-11.077-3.595a5.093 5.093 0 0 1 5.058-5.111 4.985 4.985 0 0 1 3.537 1.452 5.1 5.1 0 0 1 1.511 3.657v3.6h-1.059v-3.6a4.055 4.055 0 0 0 -1.2-2.911 3.9 3.9 0 0 0 -2.755-1.146h-.029a4.03 4.03 0 0 0 -4 4.052v3.6h-1.063zm8.09 0v3.6h-6.064v-3.6a3.065 3.065 0 0 1 3.041-3.09h.029a2.951 2.951 0 0 1 2.084.866 3.1 3.1 0 0 1 .91 2.224zm4.235 14.153a1.526 1.526 0 0 1 -1.526 1.526h-11.434a1.526 1.526 0 0 1 -1.526-1.526v-8.066a1.526 1.526 0 0 1 1.526-1.526h11.434a1.526 1.526 0 0 1 1.526 1.526z"
            transform="translate(-65.8)" />
        <path
            d="m203.1 305.156a1.735 1.735 0 1 0 -2.146 2.146v1.347a.481.481 0 1 0 .962 0v-1.349a1.73 1.73 0 0 0 1.184-2.144zm-1.665 1.251a.775.775 0 1 1 .775-.775.774.774 0 0 1 -.773.775z"
            transform="translate(-193.256 -289.275)" />
    </g>
</svg>