<svg height="24.036" viewBox="0 0 16.224 24.036" width="16.224" xmlns="http://www.w3.org/2000/svg">
    <path
        d="M94.224 21.269v2.366a.4.4 0 1 1-.8 0v-2.366a3.332 3.332 0 0 0-3.334-3.334 2.46 2.46 0 0 1-2.116-1.188.4.4 0 1 1 .684-.417 1.664 1.664 0 0 0 1.432.8 4.132 4.132 0 0 1 4.135 4.135zm-5.589-2.917a.4.4 0 0 1-.048.564 3.852 3.852 0 0 1-2.074.883v1.834a.4.4 0 1 1-.8 0V19.8a3.842 3.842 0 0 1-2.95-1.944 2.5 2.5 0 0 1-.626.08 3.331 3.331 0 0 0-3.337 3.333v2.366a.4.4 0 1 1-.8 0v-2.366a4.132 4.132 0 0 1 4.135-4.135 1.67 1.67 0 0 0 1.674-1.67v-.106a5.367 5.367 0 0 1-3.051-4.639A1.635 1.635 0 0 1 79.5 9.137V4.256a1.755 1.755 0 0 1 1.48-1.732A4.361 4.361 0 0 1 84.953 0h3.435a4.389 4.389 0 0 1 4.384 4.384v4.753a.4.4 0 1 1-.8 0V4.384A3.586 3.586 0 0 0 88.388.8h-3.435a3.565 3.565 0 0 0-3.326 2.252.4.4 0 0 1-.372.252.952.952 0 0 0-.951.951v4.88a.827.827 0 0 0 .451.733v-2.6a2.807 2.807 0 0 1 2.8-2.8h5.108a2.807 2.807 0 0 1 2.8 2.8v3.28a5.365 5.365 0 0 1-6.869 5.11 2.462 2.462 0 0 1-1.1 1.866 3.039 3.039 0 0 0 4.574.775.4.4 0 0 1 .564.049zm-2.523-3.273a4.562 4.562 0 0 0 4.557-4.557v-3.25a2.005 2.005 0 0 0-2-2h-5.111a2.005 2.005 0 0 0-2 2v3.249a4.562 4.562 0 0 0 4.554 4.558z"
        fill="#474747" transform="translate(-78)" />
</svg>
