<svg height="20" viewBox="0 0 82.549 20" width="82.549" xmlns="http://www.w3.org/2000/svg">
    <g fill-rule="evenodd">
        <path
            d="m174.349 386.87h5.641c3.029 0 4.169 1.533 3.993 3.786-.291 3.719-2.539 5.776-5.522 5.776h-1.506c-.409 0-.684.271-.8 1l-.639 4.266c-.042.277-.188.437-.406.459h-3.544c-.333 0-.451-.255-.364-.807l2.161-13.677a.86.86 0 0 1 .986-.803z"
            fill="#009ee3" transform="translate(-167.146 -382.162)" />
        <path
            d="m317.4 385.13c1.9 0 3.659 1.032 3.419 3.605-.291 3.058-1.929 4.75-4.514 4.757h-2.259c-.325 0-.482.265-.566.808l-.437 2.777c-.065.419-.281.626-.6.626h-2.1c-.335 0-.451-.214-.377-.693l1.734-11.129c.086-.548.291-.751.665-.751h5.03zm-3.422 5.958h1.711c1.07-.041 1.781-.782 1.852-2.119a1.292 1.292 0 0 0 -1.4-1.412l-1.611.007zm12.553 5.763c.192-.175.387-.265.36-.049l-.068.516c-.035.269.071.412.322.412h1.867c.315 0 .467-.127.545-.613l1.15-7.22c.058-.363-.031-.54-.306-.54h-2.053c-.185 0-.275.1-.323.386l-.076.444c-.039.232-.146.272-.245.039-.348-.824-1.236-1.194-2.475-1.165a5.138 5.138 0 0 0 -5.028 5.047 3.47 3.47 0 0 0 3.439 3.869 3.692 3.692 0 0 0 2.9-1.121zm-1.564-1.111a1.876 1.876 0 0 1 -1.924-2.2 2.68 2.68 0 0 1 2.577-2.2 1.876 1.876 0 0 1 1.924 2.2 2.679 2.679 0 0 1 -2.577 2.2zm9.392-6.407h-1.893c-.39 0-.549.291-.425.649l2.35 6.882-2.305 3.275c-.194.274-.044.523.229.523h2.127a.651.651 0 0 0 .632-.31l7.228-10.368c.223-.319.118-.654-.248-.654h-2.014c-.345 0-.483.137-.681.424l-3.014 4.368-1.345-4.377a.577.577 0 0 0 -.638-.411z"
            fill="#113984" transform="translate(-285.704 -380.676)" />
        <path
            d="m540.066 385.113c1.9 0 3.659 1.032 3.419 3.605-.291 3.058-1.929 4.75-4.514 4.757h-2.257c-.325 0-.482.265-.566.808l-.437 2.777c-.065.419-.281.626-.6.626h-2.1c-.335 0-.451-.214-.377-.693l1.737-11.132c.086-.548.291-.751.665-.751h5.03zm-3.422 5.958h1.711c1.07-.041 1.781-.782 1.852-2.119a1.292 1.292 0 0 0 -1.4-1.412l-1.611.007zm12.553 5.763c.192-.175.387-.265.36-.05l-.068.516c-.035.269.071.412.322.412h1.867c.314 0 .467-.127.545-.613l1.15-7.22c.058-.363-.031-.54-.306-.54h-2.05c-.185 0-.275.1-.323.386l-.076.444c-.039.232-.146.272-.245.039-.348-.824-1.236-1.194-2.475-1.165a5.138 5.138 0 0 0 -5.028 5.047 3.47 3.47 0 0 0 3.439 3.869 3.692 3.692 0 0 0 2.9-1.121zm-1.562-1.111a1.876 1.876 0 0 1 -1.924-2.2 2.68 2.68 0 0 1 2.577-2.2 1.876 1.876 0 0 1 1.924 2.2 2.68 2.68 0 0 1 -2.577 2.2zm8.61 2h-2.155a.255.255 0 0 1 -.264-.291l1.893-11.993a.371.371 0 0 1 .358-.291h2.155a.255.255 0 0 1 .263.291l-1.895 11.994a.371.371 0 0 1 -.358.294z"
            fill="#009ee3" transform="translate(-475.95 -380.659)" />
        <path
            d="m147.157 354.54h5.643c1.59 0 3.477.051 4.738 1.165a3.827 3.827 0 0 1 1.184 3.2c-.347 4.312-2.925 6.727-6.385 6.727h-2.784c-.475 0-.788.315-.922 1.165l-.778 4.951c-.051.32-.189.51-.437.533h-3.485c-.386 0-.523-.291-.422-.935l2.5-15.869a1 1 0 0 1 1.148-.937z"
            fill="#113984" transform="translate(-143.482 -354.54)" />
        <path
            d="m179.43 393.912.986-6.242a.863.863 0 0 1 .983-.81h5.641a5.5 5.5 0 0 1 2.28.415c-.566 3.838-3.049 5.97-6.3 5.97h-2.78a.822.822 0 0 0 -.81.667z"
            fill="#172c70" transform="translate(-174.196 -382.154)" />
    </g>
</svg>