<svg height="16.416" viewBox="0 0 15.738 16.416" width="15.738" xmlns="http://www.w3.org/2000/svg">
    <g fill="#474747">
        <path
            d="m25.309 288.389c-5.074 0-7.869 2.4-7.869 6.76a.616.616 0 0 0 .616.616h14.505a.616.616 0 0 0 .616-.616c.001-4.359-2.794-6.76-7.868-6.76zm-6.609 6.143c.242-3.259 2.464-4.91 6.614-4.91s6.371 1.651 6.614 4.91z"
            transform="translate(-17.44 -279.349)" />
        <path
            d="m136.138 0a4.04 4.04 0 0 0 -4.089 4.171 4.1 4.1 0 1 0 8.177 0 4.04 4.04 0 0 0 -4.088-4.171zm0 7.376a3.049 3.049 0 0 1 -2.856-3.205 2.8 2.8 0 0 1 2.856-2.938 2.834 2.834 0 0 1 2.856 2.938 3.049 3.049 0 0 1 -2.856 3.205z"
            transform="translate(-128.269)" />
    </g>
</svg>