<svg height="23.054" viewBox="0 0 21.613 23.054" width="21.613" xmlns="http://www.w3.org/2000/svg">
    <path
        d="m33.561 14.949a4.049 4.049 0 0 0 -3.261 1.651l-6.361-3.251a4.052 4.052 0 0 0 -.132-2.662l6.667-4.006a4.036 4.036 0 1 0 -.693-1.159l-6.681 4.011a4.052 4.052 0 1 0 .248 5.026l6.342 3.241a4.053 4.053 0 1 0 3.871-2.851zm0-13.6a2.7 2.7 0 1 1 -2.7 2.7 2.7 2.7 0 0 1 2.7-2.698zm-13.509 13.551a2.7 2.7 0 1 1 2.7-2.7 2.7 2.7 0 0 1 -2.7 2.7zm13.508 6.8a2.7 2.7 0 1 1 2.7-2.7 2.7 2.7 0 0 1 -2.699 2.7z"
        fill="#474747" transform="translate(-16)" />
</svg>