<svg height="19.992" viewBox="0 0 48.044 19.992" width="48.044" xmlns="http://www.w3.org/2000/svg">
    <g fill="#6772e5">
        <g fill-rule="evenodd">
            <path
                d="m99.794 24c0-3.416-1.655-6.112-4.818-6.112s-5.1 2.7-5.1 6.086c0 4.017 2.269 6.046 5.525 6.046a7.441 7.441 0 0 0 3.7-.867v-2.673a7.087 7.087 0 0 1 -3.27.734c-1.295 0-2.442-.454-2.589-2.029h6.526c-.001-.173.026-.867.026-1.185zm-6.594-1.27c0-1.508.921-2.135 1.762-2.135.814 0 1.682.627 1.682 2.135z"
                transform="translate(-51.75 -13.668)" />
            <path
                d="m74.04 17.886a3.77 3.77 0 0 0 -2.616 1.041l-.173-.827h-2.936v15.56l3.336-.707.013-3.777a3.758 3.758 0 0 0 2.362.841c2.389 0 4.564-1.922 4.564-6.152-.013-3.87-2.215-5.979-4.551-5.979zm-.8 9.2a2 2 0 0 1 -1.575-.627l-.014-4.959a1.986 1.986 0 0 1 1.588-.654c1.214 0 2.055 1.361 2.055 3.11 0 1.79-.827 3.125-2.055 3.125z"
                transform="translate(-41.063 -13.668)" />
            <path d="m62.563 12.234v-2.709l-3.35.707v2.722z"
                transform="translate(-36.552 -9.525)" />
        </g>
        <g fill-rule="evenodd">
            <path
                d="m49.054 19.187-.214-.987h-2.882v11.677h3.336v-7.914a2.354 2.354 0 0 1 2.536-.694v-3.069a2.265 2.265 0 0 0 -2.776.987z"
                transform="translate(-29.983 -13.756)" />
            <path
                d="m35.654 12.594-3.256.694-.013 10.69a3.353 3.353 0 0 0 3.456 3.43 5.155 5.155 0 0 0 2.335-.44v-2.71c-.427.173-2.536.787-2.536-1.188v-4.737h2.536v-2.843h-2.535z"
                transform="translate(-23.256 -11.046)" />
            <path
                d="m17.664 21.5c0-.52.427-.721 1.134-.721a7.444 7.444 0 0 1 3.31.854v-3.133a8.8 8.8 0 0 0 -3.31-.614c-2.709 0-4.511 1.415-4.511 3.777 0 3.683 5.071 3.1 5.071 4.684 0 .614-.534.814-1.281.814a8.307 8.307 0 0 1 -3.643-1.068v3.176a9.251 9.251 0 0 0 3.643.761c2.776 0 4.684-1.375 4.684-3.763-.013-3.977-5.1-3.27-5.1-4.764z"
                transform="translate(-14.287 -13.668)" />
        </g>
        <path d="m0 0h3.35v11.677h-3.35z" transform="translate(22.661 4.444)" />
    </g>
</svg>