<svg enable-background="new 0 0 122.881 122.88" height="122.88" viewBox="0 0 122.881 122.88"
    width="122.881" xmlns="http://www.w3.org/2000/svg">
    <path clip-rule="evenodd"
        d="m61.44 0c33.933 0 61.441 27.507 61.441 61.439 0 33.933-27.508 61.44-61.441 61.44-33.932.001-61.44-27.507-61.44-61.44 0-33.932 27.508-61.439 61.44-61.439zm-27.334 67.678-.015-.014c-.785-.718-1.207-1.685-1.256-2.669-.049-.982.275-1.985.984-2.777.01-.011.019-.021.029-.031.717-.784 1.684-1.207 2.668-1.256.989-.049 1.998.28 2.792.998l12.956 11.748 31.089-32.559c.74-.776 1.723-1.18 2.719-1.204.992-.025 1.994.329 2.771 1.067v.001c.777.739 1.18 1.724 1.205 2.718.025.993-.33 1.997-1.068 2.773l-33.701 35.296c-.023.024-.048.047-.073.067-.715.715-1.649 1.095-2.598 1.13-.974.037-1.963-.293-2.744-1l-15.746-14.278z"
        fill-rule="evenodd" />
</svg>