<svg height="22.415" viewBox="0 0 22.461 22.415" width="22.461" xmlns="http://www.w3.org/2000/svg">
    <path
        d="M21.2 11.562V7.1a1.874 1.874 0 0 0-1.872-1.872h-.634l.141-.489a1.5 1.5 0 0 0-1.025-1.853l-4.25-1.224a.374.374 0 0 0-.207.72l2.67.769a2.287 2.287 0 0 0-.008 2.076H8.189V2.278a.374.374 0 1 0-.749 0v2.948H6.177V2.278a.374.374 0 1 0-.749 0v2.948H3.79V2a.75.75 0 0 1 .749-.749h6.317a.75.75 0 0 1 .749.749v2.056a.374.374 0 0 0 .749 0V2a1.5 1.5 0 0 0-1.5-1.5H4.539A1.5 1.5 0 0 0 3.042 2v3.226h-1.17A1.874 1.874 0 0 0 0 7.1v13.943a1.874 1.874 0 0 0 1.872 1.872h17.454a1.874 1.874 0 0 0 1.874-1.872v-2.738a.374.374 0 0 0-.749 0v2.737a1.124 1.124 0 0 1-1.123 1.123H1.872a1.124 1.124 0 0 1-1.123-1.122V7.1a1.124 1.124 0 0 1 1.123-1.125h17.454A1.124 1.124 0 0 1 20.449 7.1v4.445h-3.088a1.5 1.5 0 0 0-1.5 1.5V15.1a1.5 1.5 0 0 0 1.5 1.5h3.6a1.5 1.5 0 0 0 1.5-1.5v-2.059a1.5 1.5 0 0 0-1.261-1.479zm-4.435-8.2l.835.238a.748.748 0 0 1 .512.927l-.2.7h-1a1.542 1.542 0 0 1-.149-1.864zM21.713 15.1a.75.75 0 0 1-.749.749h-3.6a.75.75 0 0 1-.749-.749v-2.059a.75.75 0 0 1 .749-.749h3.6a.75.75 0 0 1 .749.749zm-2.948-1.03a.374.374 0 0 1-.374.374h-.562a.374.374 0 1 1 0-.749h.562a.374.374 0 0 1 .374.375z"
        fill="#474747" transform="translate(0 -.5)" />
</svg>
