<svg height="24.036" viewBox="0 0 16.726 24.036" width="16.726" xmlns="http://www.w3.org/2000/svg">
    <path
        d="M89.462 21.269v2.366a.4.4 0 1 1-.8 0v-2.366a3.332 3.332 0 0 0-3.334-3.334 2.46 2.46 0 0 1-2.116-1.188.4.4 0 0 1 .684-.417 1.664 1.664 0 0 0 1.432.8 4.132 4.132 0 0 1 4.134 4.139zm-6.683-3.1l-1.429 1.104-2.429-1.881a2.454 2.454 0 0 0 .918-1.73 5.359 5.359 0 0 0 6.869-5.141V7.685a.4.4 0 0 0-.4-.375 1.649 1.649 0 0 1-1.045-.193 1.823 1.823 0 0 1-.763-1.456.4.4 0 0 0-.632-.329 12.91 12.91 0 0 1-5.68 2.254.4.4 0 0 0 .055.8 13.18 13.18 0 0 0 2.839-.7A13.735 13.735 0 0 0 83.8 6.344a2.262 2.262 0 0 0 2.1 1.78v2.4a4.557 4.557 0 1 1-9.114 0V7.712a.4.4 0 0 0-.8 0v2.81a5.365 5.365 0 0 0 3.055 4.837v.106a1.67 1.67 0 0 1-1.674 1.67 4.133 4.133 0 0 0-1.479.272l-.259-.206a4.893 4.893 0 0 1-1.026-6.545 5.534 5.534 0 0 0 .931-3.078v-2.17A4.612 4.612 0 0 1 80.149.8h2.4a4.612 4.612 0 0 1 4.607 4.607v2.17a5.506 5.506 0 0 0 .927 3.071 4.894 4.894 0 0 1-.039 5.5.4.4 0 1 0 .66.455 5.694 5.694 0 0 0 .046-6.4 4.707 4.707 0 0 1-.792-2.626V5.408A5.414 5.414 0 0 0 82.552 0h-2.4a5.414 5.414 0 0 0-5.412 5.408v2.17a4.735 4.735 0 0 1-.8 2.634 5.693 5.693 0 0 0 1.168 7.595 4.123 4.123 0 0 0-1.873 3.462v2.366a.4.4 0 1 0 .8 0v-2.366a3.332 3.332 0 0 1 3.334-3.334 2.484 2.484 0 0 0 .779-.125l2.957 2.29a.4.4 0 0 0 .49 0l1.674-1.3a.4.4 0 1 0-.49-.633z"
        fill="#474747" transform="translate(-72.987)" />
</svg>
