<svg height="16.94" viewBox="0 0 25.778 16.94" width="25.778" xmlns="http://www.w3.org/2000/svg">
    <g fill="#474747" transform="translate(-2 -14)">
        <path
            d="m27.41 30.94h-25.042a.368.368 0 0 1 -.368-.369v-16.2a.368.368 0 0 1 .368-.371h25.042a.368.368 0 0 1 .368.368v16.2a.368.368 0 0 1 -.368.372zm-24.673-.74h24.3v-15.463h-24.3z" />
        <path
            d="m27.518 32.521h-17.677a.368.368 0 0 1 -.368-.368 1.1 1.1 0 0 0 -1.1-1.1.368.368 0 0 1 -.373-.374v-8.838a.368.368 0 0 1 .368-.368 1.1 1.1 0 0 0 1.1-1.1.368.368 0 0 1 .373-.373h17.677a.368.368 0 0 1 .368.368 1.1 1.1 0 0 0 1.1 1.1.368.368 0 0 1 .368.368v8.838a.368.368 0 0 1 -.368.368 1.1 1.1 0 0 0 -1.1 1.1.368.368 0 0 1 -.368.368zm-17.345-.737h17.013a1.847 1.847 0 0 1 1.436-1.436v-8.175a1.847 1.847 0 0 1 -1.436-1.436h-17.013a1.847 1.847 0 0 1 -1.436 1.436v8.175a1.847 1.847 0 0 1 1.436 1.436z"
            transform="translate(-3.79 -3.79)" />
        <path
            d="m33.841 34.629a1.843 1.843 0 0 1 -1.841-1.842h.737a1.1 1.1 0 0 0 2.21 0c0-.646-.655-.964-1.2-1.118-1.128-.315-1.747-.964-1.747-1.828a1.841 1.841 0 1 1 3.683 0h-.737a1.1 1.1 0 0 0 -2.21 0c0 .518.405.894 1.2 1.118 1.123.315 1.742.964 1.742 1.828a1.843 1.843 0 0 1 -1.837 1.842z"
            transform="translate(-18.952 -8.844)" />
        <path d="m36 25h.737v1.473h-.737z" transform="translate(-21.479 -6.949)" />
        <path d="m36 45h.737v1.473h-.737z" transform="translate(-21.479 -19.584)" />
        <path
            d="m54.473 35.946a1.473 1.473 0 1 1 1.473-1.473 1.473 1.473 0 0 1 -1.473 1.473zm0-2.21a.737.737 0 1 0 .737.737.737.737 0 0 0 -.737-.736z"
            transform="translate(-32.219 -12.003)" />
        <path
            d="m14.473 35.946a1.473 1.473 0 1 1 1.473-1.473 1.473 1.473 0 0 1 -1.473 1.473zm0-2.21a.737.737 0 1 0 .737.737.737.737 0 0 0 -.737-.736z"
            transform="translate(-6.949 -12.003)" />
    </g>
</svg>