<svg height="667" viewBox="0 0 375 667" width="375" xmlns="http://www.w3.org/2000/svg">
    <defs>
        <clipPath id="clip-Category">
            <path d="M0 0H375V667H0z" />
        </clipPath>
        <filter filterUnits="userSpaceOnUse" height="71" id="Rectangle" width="381" x="-3" y="-2">
            <feOffset dy="1" />
            <feGaussianBlur result="blur" stdDeviation="1" />
            <feFlood flood-color="#282828" flood-opacity=".2" />
            <feComposite in2="blur" operator="in" />
            <feComposite in="SourceGraphic" />
        </filter>
        <style>
            .cls-2{fill:#fff}.cls-5,.cls-6{fill:#474747}.cls-6{font-size:15px;font-family:SFProDisplay-Regular,SF
            Pro Display}.cls-7{fill:#f2f2f2}
        </style>
    </defs>
    <g clip-path="url(#clip-Category)" id="Category">
        <path d="M0 0H375V667H0z" fill="#f9f9f9" />
        <g filter="url(#Rectangle)" id="APPBAR_-_TOP">
            <path class="cls-2" d="M0 0H375V65H0z" id="Rectangle-2" />
        </g>
        <text fill="#474747" font-family="SFProDisplay-Bold, SF Pro Display" font-size="14px"
            font-weight="700" id="Category-2" transform="translate(58 38)">
            <tspan x="0" y="0">Category</tspan>
        </text>
        <g id="arrow-left" transform="translate(41 21)">
            <path d="M0 0H24V24H0z" fill="none" id="Rectangle-3" transform="translate(-24)" />
            <path class="cls-5"
                d="M-10.293 13.707a1 1 0 0 0 0-1.414L-14.586 8H-1a1 1 0 0 0 1-1 1 1 0 0 0-1-1h-13.586l4.293-4.293a1 1 0 0 0 0-1.415 1 1 0 0 0-1.414 0l-6 6a1 1 0 0 0-.172.231l-.01.019v.005l-.007.014-.006.012v.008l-.008.018A1 1 0 0 0-18 7a1 1 0 0 0 .092.419l.008.016v.009l.005.011.007.013v.008l.008.015v.005l.01.016.011.017.012.018.012.017.012.016.011.014V7.6l.01.012.009.011.006.007.015.017.04.042 6 6A1 1 0 0 0-11 14a1 1 0 0 0 .707-.293z"
                id="Combined_Shape" transform="translate(-3 5)" />
        </g>
        <rect class="cls-2" height="310" id="Rectangle_79" rx="10" transform="translate(20 87)"
            width="335" />
        <text class="cls-6" id="Men" transform="translate(77 123)">
            <tspan x="0" y="0">Men</tspan>
        </text>
        <path class="cls-7" d="M0 0H295V1H0z" id="Rectangle_51" transform="translate(40 149)" />
        <g id="Shape" transform="rotate(-90 226.29 -103.71)">
            <path class="cls-5"
                d="M4.312 3.418L1.052.179a.619.619 0 0 0-.871 0 .609.609 0 0 0 0 .865l3.7 3.671a.619.619 0 0 0 .871 0l3.7-3.671a.609.609 0 0 0 0-.865.619.619 0 0 0-.871 0z"
                id="Shape-2" />
        </g>
        <path class="cls-5"
            d="M89.462 21.269v2.366a.4.4 0 1 1-.8 0v-2.366a3.332 3.332 0 0 0-3.334-3.334 2.46 2.46 0 0 1-2.116-1.188.4.4 0 0 1 .684-.417 1.664 1.664 0 0 0 1.432.8 4.132 4.132 0 0 1 4.134 4.139zm-6.683-3.1l-1.429 1.104-2.429-1.881a2.454 2.454 0 0 0 .918-1.73 5.359 5.359 0 0 0 6.869-5.141V7.685a.4.4 0 0 0-.4-.375 1.649 1.649 0 0 1-1.045-.193 1.823 1.823 0 0 1-.763-1.456.4.4 0 0 0-.632-.329 12.91 12.91 0 0 1-5.68 2.254.4.4 0 0 0 .055.8 13.18 13.18 0 0 0 2.839-.7A13.735 13.735 0 0 0 83.8 6.344a2.262 2.262 0 0 0 2.1 1.78v2.4a4.557 4.557 0 1 1-9.114 0V7.712a.4.4 0 0 0-.8 0v2.81a5.365 5.365 0 0 0 3.055 4.837v.106a1.67 1.67 0 0 1-1.674 1.67 4.133 4.133 0 0 0-1.479.272l-.259-.206a4.893 4.893 0 0 1-1.026-6.545 5.534 5.534 0 0 0 .931-3.078v-2.17A4.612 4.612 0 0 1 80.149.8h2.4a4.612 4.612 0 0 1 4.607 4.607v2.17a5.506 5.506 0 0 0 .927 3.071 4.894 4.894 0 0 1-.039 5.5.4.4 0 1 0 .66.455 5.694 5.694 0 0 0 .046-6.4 4.707 4.707 0 0 1-.792-2.626V5.408A5.414 5.414 0 0 0 82.552 0h-2.4a5.414 5.414 0 0 0-5.412 5.408v2.17a4.735 4.735 0 0 1-.8 2.634 5.693 5.693 0 0 0 1.168 7.595 4.123 4.123 0 0 0-1.873 3.462v2.366a.4.4 0 1 0 .8 0v-2.366a3.332 3.332 0 0 1 3.334-3.334 2.484 2.484 0 0 0 .779-.125l2.957 2.29a.4.4 0 0 0 .49 0l1.674-1.3a.4.4 0 1 0-.49-.633z"
            id="_001-woman" transform="translate(-26.987 168)" />
        <path class="cls-5"
            d="M94.224 21.269v2.366a.4.4 0 1 1-.8 0v-2.366a3.332 3.332 0 0 0-3.334-3.334 2.46 2.46 0 0 1-2.116-1.188.4.4 0 1 1 .684-.417 1.664 1.664 0 0 0 1.432.8 4.132 4.132 0 0 1 4.135 4.135zm-5.589-2.917a.4.4 0 0 1-.048.564 3.852 3.852 0 0 1-2.074.883v1.834a.4.4 0 1 1-.8 0V19.8a3.842 3.842 0 0 1-2.95-1.944 2.5 2.5 0 0 1-.626.08 3.331 3.331 0 0 0-3.337 3.333v2.366a.4.4 0 1 1-.8 0v-2.366a4.132 4.132 0 0 1 4.135-4.135 1.67 1.67 0 0 0 1.674-1.67v-.106a5.367 5.367 0 0 1-3.051-4.639A1.635 1.635 0 0 1 79.5 9.137V4.256a1.755 1.755 0 0 1 1.48-1.732A4.361 4.361 0 0 1 84.953 0h3.435a4.389 4.389 0 0 1 4.384 4.384v4.753a.4.4 0 1 1-.8 0V4.384A3.586 3.586 0 0 0 88.388.8h-3.435a3.565 3.565 0 0 0-3.326 2.252.4.4 0 0 1-.372.252.952.952 0 0 0-.951.951v4.88a.827.827 0 0 0 .451.733v-2.6a2.807 2.807 0 0 1 2.8-2.8h5.108a2.807 2.807 0 0 1 2.8 2.8v3.28a5.365 5.365 0 0 1-6.869 5.11 2.462 2.462 0 0 1-1.1 1.866 3.039 3.039 0 0 0 4.574.775.4.4 0 0 1 .564.049zm-2.523-3.273a4.562 4.562 0 0 0 4.557-4.557v-3.25a2.005 2.005 0 0 0-2-2h-5.111a2.005 2.005 0 0 0-2 2v3.249a4.562 4.562 0 0 0 4.554 4.558z"
            id="_002-man" transform="translate(-32 230)" />
        <path class="cls-5"
            d="M90.089 17.134a1.664 1.664 0 0 1-1.432-.8.4.4 0 1 0-.684.417 2.473 2.473 0 0 0 .838.835l-.411 1.88-1-1.153a.4.4 0 1 0-.584-.55l-.7.81-1.783-1.973a2.447 2.447 0 0 0 .269-.94 5.364 5.364 0 0 0 6.869-5.141V7.211a.4.4 0 1 0-.8 0v3.311a4.557 4.557 0 0 1-9.114 0v-3.4a2.262 2.262 0 0 0 2.1-1.78 13.7 13.7 0 0 0 5.5 2.035.4.4 0 0 0 .111-.793 12.91 12.91 0 0 1-5.68-2.254.4.4 0 0 0-.632.33 1.823 1.823 0 0 1-.756 1.456 1.649 1.649 0 0 1-1.042.193.4.4 0 0 0-.4.354v3.206a.827.827 0 0 1-.451-.733v-4.88a.952.952 0 0 1 .951-.951.4.4 0 0 0 .372-.252A3.565 3.565 0 0 1 84.953.8h3.435a3.586 3.586 0 0 1 3.582 3.582v4.755a.4.4 0 1 0 .8 0V4.384A4.389 4.389 0 0 0 88.388 0h-3.435a4.361 4.361 0 0 0-3.97 2.525A1.755 1.755 0 0 0 79.5 4.256v4.88a1.635 1.635 0 0 0 1.256 1.583 5.366 5.366 0 0 0 3.05 4.639v.106a1.671 1.671 0 0 1-1.674 1.67A4.132 4.132 0 0 0 78 21.269v2.366a.4.4 0 1 0 .8 0v-2.366a3.332 3.332 0 0 1 3.334-3.334 2.5 2.5 0 0 0 .523-.056l.559 2.537a.4.4 0 0 0 .694.176l.789-.909-.488 3.9a.4.4 0 0 0 .8.1l.564-4.509c.025.028.248.278.277.3a.4.4 0 0 0 .564-.035l.24-.276.565 4.517a.4.4 0 0 0 .8-.1l-.488-3.9.789.909a.4.4 0 0 0 .694-.176l.559-2.537a2.516 2.516 0 0 0 .523.056 3.332 3.332 0 0 1 3.334 3.334v2.366a.4.4 0 0 0 .8 0v-2.363a4.132 4.132 0 0 0-4.135-4.135zm-6.261 2.332l-.415-1.885a2.487 2.487 0 0 0 .428-.328l.971 1.079z"
            id="_003-man-1" transform="translate(-32 106)" />
        <g id="_004-high-heels" transform="translate(42 294)">
            <path class="cls-5" d="M432.462 348.8a.47.47 0 1 0-.47-.47.47.47 0 0 0 .47.47zm0 0"
                id="Path_2192" transform="translate(-411.688 -331.529)" />
            <path class="cls-5"
                d="M.111 7.44a5.172 5.172 0 0 0 .548 1.493 9.213 9.213 0 0 1 1.219 4.441v5.8a.47.47 0 0 0 .47.47h1.88a.47.47 0 0 0 .47-.47v-5.243a7.091 7.091 0 0 1 .702-3.076l.043-.069a18.8 18.8 0 0 1 5.17 6.858 3.317 3.317 0 0 0 3.021 2h3.844a28.2 28.2 0 0 0 4.4-.225c.539-.093 2.18-.375 2.18-1.655a4.456 4.456 0 0 0-1.528-2.677 6.963 6.963 0 0 0-3.721-1.925.47.47 0 0 0-.383.116 3.561 3.561 0 0 1-2.165.722 3.29 3.29 0 0 1-2.772-1.495.5.5 0 0 0-.03-.048l-3.138-4.472A36.27 36.27 0 0 0 3.431.6a.47.47 0 0 0-.589 0 7.681 7.681 0 0 0-1.819 2.08 6.851 6.851 0 0 0-.915 4.746v.014zm3.646 6.492v4.774h-.94v-5.333c0-.141 0-.294-.013-.452A10.955 10.955 0 0 0 1.331 8.18a18.781 18.781 0 0 1 3.374 2.02 7.639 7.639 0 0 0-.948 3.733zM1.83 3.161a6.715 6.715 0 0 1 1.309-1.582 35.328 35.328 0 0 1 6.412 6.945l3.122 4.454a4.239 4.239 0 0 0 3.588 1.966 4.681 4.681 0 0 0 2.618-.818 6.1 6.1 0 0 1 3 1.635 3.708 3.708 0 0 1 1.243 2c0 .4-.761.619-1.4.729a27.532 27.532 0 0 1-4.241.212h-3.842a2.376 2.376 0 0 1-2.161-1.44A19.729 19.729 0 0 0 .989 7a6 6 0 0 1 .841-3.839zm0 0"
                id="Path_2193" transform="translate(.001 -.499)" />
            <path class="cls-5"
                d="M280.45 348.8h5.265a.47.47 0 0 0 0-.94h-5.265a.47.47 0 1 0 0 .94zm0 0"
                id="Path_2194" transform="translate(-266.821 -331.529)" />
        </g>
        <g id="_005-house-outline" transform="translate(42.999 357)">
            <path class="cls-5"
                d="M21.55 33.21l-10.13-8.28a.893.893 0 0 0-1.131 0l-2.595 2.122v-1.1a.43.43 0 0 0-.43-.43h-2.5a.43.43 0 0 0-.43.43V29.8L.158 33.21a.43.43 0 0 0 .545.667L2.872 32.1v10.8a.43.43 0 0 0 .43.43h15.105a.43.43 0 0 0 .43-.43V32.1l2.169 1.773a.43.43 0 0 0 .544-.667zM5.2 26.38h1.634v1.374L5.2 29.092zm12.78 16.091H3.732V31.4l6.754-5.52a.582.582 0 0 1 .736 0l6.755 5.52z"
                id="Path_2195" transform="translate(0 -24.729)" />
        </g>
        <text class="cls-6" id="Women" transform="translate(77 185)">
            <tspan x="0" y="0">Women</tspan>
        </text>
        <path class="cls-7" d="M0 0H295V1H0z" id="Rectangle_136" transform="translate(40 211)" />
        <g id="Shape-3" transform="rotate(-90 257.29 -72.71)">
            <path class="cls-5"
                d="M4.312 3.418L1.052.179a.619.619 0 0 0-.871 0 .609.609 0 0 0 0 .865l3.7 3.671a.619.619 0 0 0 .871 0l3.7-3.671a.609.609 0 0 0 0-.865.619.619 0 0 0-.871 0z"
                id="Shape-4" />
        </g>
        <text class="cls-6" id="Kids" transform="translate(77 247)">
            <tspan x="0" y="0">Kids</tspan>
        </text>
        <path class="cls-7" d="M0 0H295V1H0z" id="Rectangle_138" transform="translate(40 273)" />
        <g id="Shape-5" transform="rotate(-90 288.29 -41.71)">
            <path class="cls-5"
                d="M4.312 3.418L1.052.179a.619.619 0 0 0-.871 0 .609.609 0 0 0 0 .865l3.7 3.671a.619.619 0 0 0 .871 0l3.7-3.671a.609.609 0 0 0 0-.865.619.619 0 0 0-.871 0z"
                id="Shape-6" />
        </g>
        <text class="cls-6" id="Footware" transform="translate(77 309)">
            <tspan x="0" y="0">Footware</tspan>
        </text>
        <path class="cls-7" d="M0 0H295V1H0z" id="Rectangle_140" transform="translate(40 335)" />
        <g id="Shape-7" transform="rotate(-90 319.29 -10.71)">
            <path class="cls-5"
                d="M4.312 3.418L1.052.179a.619.619 0 0 0-.871 0 .609.609 0 0 0 0 .865l3.7 3.671a.619.619 0 0 0 .871 0l3.7-3.671a.609.609 0 0 0 0-.865.619.619 0 0 0-.871 0z"
                id="Shape-8" />
        </g>
        <text class="cls-6" id="Home_Decor" transform="translate(77 371)">
            <tspan x="0" y="0">Home Decor</tspan>
        </text>
        <g id="Shape-9" transform="rotate(-90 350.29 20.29)">
            <path class="cls-5"
                d="M4.312 3.418L1.052.179a.619.619 0 0 0-.871 0 .609.609 0 0 0 0 .865l3.7 3.671a.619.619 0 0 0 .871 0l3.7-3.671a.609.609 0 0 0 0-.865.619.619 0 0 0-.871 0z"
                id="Shape-10" />
        </g>
    </g>
</svg>
