<svg height="18.603" viewBox="0 0 21.708 18.603" width="21.708" xmlns="http://www.w3.org/2000/svg">
    <g>
        <path
            d="M21.55 33.21l-10.13-8.28a.893.893 0 0 0-1.131 0l-2.595 2.122v-1.1a.43.43 0 0 0-.43-.43h-2.5a.43.43 0 0 0-.43.43V29.8L.158 33.21a.43.43 0 0 0 .545.667L2.872 32.1v10.8a.43.43 0 0 0 .43.43h15.105a.43.43 0 0 0 .43-.43V32.1l2.169 1.773a.43.43 0 0 0 .544-.667zM5.2 26.38h1.634v1.374L5.2 29.092zm12.78 16.091H3.732V31.4l6.754-5.52a.582.582 0 0 1 .736 0l6.755 5.52z"
            fill="#474747" transform="translate(0 -24.729)" />
    </g>
</svg>
