<svg height="22.071" viewBox="0 0 16.306 22.071" width="16.306" xmlns="http://www.w3.org/2000/svg">
    <g fill="#474747">
        <path
            d="m56.233 0a8.162 8.162 0 0 0 -8.153 8.153 9.407 9.407 0 0 0 .692 3.139 13.148 13.148 0 0 0 .942 1.762l5.59 8.47a1.063 1.063 0 0 0 1.858 0l5.591-8.471a13.094 13.094 0 0 0 .942-1.762 9.4 9.4 0 0 0 .691-3.139 8.162 8.162 0 0 0 -8.153-8.152zm6.578 10.92a12.047 12.047 0 0 1 -.859 1.607l-5.591 8.473c-.11.167-.145.167-.256 0l-5.591-8.471a12.053 12.053 0 0 1 -.859-1.607 8.539 8.539 0 0 1 -.617-2.766 7.194 7.194 0 1 1 14.388 0 8.546 8.546 0 0 1 -.615 2.764z"
            transform="translate(-48.08)" />
        <path
            d="m116.4 64.008a4.316 4.316 0 1 0 4.316 4.316 4.321 4.321 0 0 0 -4.316-4.316zm0 7.673a3.357 3.357 0 1 1 3.357-3.357 3.361 3.361 0 0 1 -3.357 3.357z"
            transform="translate(-108.243 -60.171)" />
    </g>
</svg>