<svg height="20.008" viewBox="0 0 94.727 20.008" width="94.727" xmlns="http://www.w3.org/2000/svg">
    <g fill-rule="evenodd">
        <g fill="#072654">
            <path
                d="m267.6 80.974a1.959 1.959 0 0 1 -.869 1.228 3.5 3.5 0 0 1 -1.813.392h-2.478l.869-3.241h2.474a2.442 2.442 0 0 1 1.6.392 1.147 1.147 0 0 1 .211 1.228m2.562-.07a2.739 2.739 0 0 0 -.391-2.7 3.984 3.984 0 0 0 -3.024-.941h-5.523l-3.318 12.406h2.683l1.34-5h1.76a1.909 1.909 0 0 1 .932.192.842.842 0 0 1 .4.679l.479 4.129h2.875l-.466-3.85a1.522 1.522 0 0 0 -1.18-1.516 5.072 5.072 0 0 0 2.214-1.272 4.641 4.641 0 0 0 1.223-2.126"
                transform="translate(-245.044 -73.424)" />
            <path
                d="m501.979 148.791a4 4 0 0 1 -1.036 1.917 2.354 2.354 0 0 1 -1.676.662 1.4 1.4 0 0 1 -1.35-.653 2.6 2.6 0 0 1 -.025-1.89 4.067 4.067 0 0 1 1.058-1.934 2.382 2.382 0 0 1 1.7-.7 1.34 1.34 0 0 1 1.319.671 2.748 2.748 0 0 1 .007 1.925zm1.176-4.391-.336 1.255a1.97 1.97 0 0 0 -.843-1.08 2.813 2.813 0 0 0 -1.548-.4 4.405 4.405 0 0 0 -2.178.584 5.748 5.748 0 0 0 -1.826 1.646 7.187 7.187 0 0 0 -1.146 2.422 5.163 5.163 0 0 0 -.145 2.4 2.6 2.6 0 0 0 .95 1.594 3.01 3.01 0 0 0 1.88.557 4.164 4.164 0 0 0 1.758-.383 4.093 4.093 0 0 0 1.417-1.063l-.351 1.307h2.6l2.367-8.834z"
                transform="translate(-470.342 -136.99)" />
            <path
                d="m706.114 148.706h-7.544l-.527 1.969h4.391l-5.805 5.018-.5 1.847h7.788l.528-1.969h-4.7l5.893-5.088z"
                transform="translate(-661.37 -141.296)" />
            <path
                d="m898.149 148.774a4.058 4.058 0 0 1 -1.037 1.952 2.339 2.339 0 0 1 -1.662.644q-2.039 0-1.343-2.6a4.027 4.027 0 0 1 1.043-1.943 2.383 2.383 0 0 1 1.691-.654 1.341 1.341 0 0 1 1.315.654 2.78 2.78 0 0 1 -.006 1.943m1.519-4.043a4.273 4.273 0 0 0 -2.29-.557 6.148 6.148 0 0 0 -2.615.557 5.676 5.676 0 0 0 -2.05 1.6 6.5 6.5 0 0 0 -1.22 2.439 4.654 4.654 0 0 0 -.087 2.439 2.627 2.627 0 0 0 1.191 1.6 4.351 4.351 0 0 0 2.316.557 6.045 6.045 0 0 0 2.589-.557 5.707 5.707 0 0 0 2.041-1.6 6.507 6.507 0 0 0 1.219-2.439 4.656 4.656 0 0 0 .088-2.439 2.643 2.643 0 0 0 -1.182-1.6"
                transform="translate(-846.763 -136.99)" />
            <path
                d="m1470.5 148.791a4 4 0 0 1 -1.036 1.917 2.354 2.354 0 0 1 -1.676.662 1.4 1.4 0 0 1 -1.349-.653 2.594 2.594 0 0 1 -.025-1.89 4.066 4.066 0 0 1 1.058-1.934 2.383 2.383 0 0 1 1.7-.7 1.341 1.341 0 0 1 1.319.671 2.752 2.752 0 0 1 .007 1.925zm1.176-4.391-.336 1.255a1.97 1.97 0 0 0 -.842-1.08 2.814 2.814 0 0 0 -1.548-.4 4.407 4.407 0 0 0 -2.178.584 5.748 5.748 0 0 0 -1.826 1.646 7.18 7.18 0 0 0 -1.145 2.422 5.168 5.168 0 0 0 -.146 2.4 2.592 2.592 0 0 0 .949 1.594 3.011 3.011 0 0 0 1.88.557 4.165 4.165 0 0 0 1.758-.383 4.093 4.093 0 0 0 1.417-1.063l-.35 1.307h2.6l2.367-8.834z"
                transform="translate(-1390.441 -136.99)" />
            <path
                d="m1096.026 147.1.661-2.4a1.953 1.953 0 0 0 -.894-.174 3.566 3.566 0 0 0 -1.714.444 3.76 3.76 0 0 0 -1.214 1.058l.344-1.295h-2.6l-2.385 8.834h2.632l1.237-4.617a2.927 2.927 0 0 1 .971-1.577 2.687 2.687 0 0 1 1.746-.566 2.574 2.574 0 0 1 1.21.3"
                transform="translate(-1033.865 -137.322)" />
            <path
                d="m1222.273 148.83a3.911 3.911 0 0 1 -1.029 1.89 2.364 2.364 0 0 1 -1.673.653 1.368 1.368 0 0 1 -1.33-.662 2.665 2.665 0 0 1 -.018-1.917 4.005 4.005 0 0 1 1.047-1.925 2.378 2.378 0 0 1 1.688-.671 1.316 1.316 0 0 1 1.3.7 2.791 2.791 0 0 1 .013 1.934m1.839-4.068a2.9 2.9 0 0 0 -1.865-.583 4.133 4.133 0 0 0 -1.89.453 3.924 3.924 0 0 0 -1.455 1.237l.008-.058.442-1.407h-2.569l-.654 2.443-.022.084-2.695 10.067h2.631l1.359-5.07a1.812 1.812 0 0 0 .83 1.062 2.934 2.934 0 0 0 1.553.383 4.557 4.557 0 0 0 2.188-.557 5.429 5.429 0 0 0 1.8-1.594 7.067 7.067 0 0 0 1.13-2.4 5.345 5.345 0 0 0 .152-2.422 2.7 2.7 0 0 0 -.944-1.647"
                transform="translate(-1152.787 -136.994)" />
            <path
                d="m1674.493 148.708h-2.563l-.423.589c-.034.044-.068.089-.1.141l-.046.068-3.361 4.683-.7-5.483h-2.754l1.395 8.331-3.08 4.266h2.743l.747-1.057.064-.091.871-1.235.025-.035 3.9-5.524 3.284-4.649z"
                transform="translate(-1579.767 -141.296)" />
        </g>
        <path d="m107.666 5.742-.788 2.9 4.507-2.915-2.948 11h2.993l4.355-16.245z" fill="#3395ff"
            transform="translate(-101.575 -.482)" />
        <path d="m2.047 142.048-1.239 4.624h6.135l2.51-9.406-7.407 4.782" fill="#072654"
            transform="translate(-.808 -130.428)" />
    </g>
</svg>