<svg height="10.396" viewBox="0 0 6.931 10.396" width="6.931" xmlns="http://www.w3.org/2000/svg">
    <g fill="#fff">
        <path
            d="m217.54 1.861-1.733-1.733-.032-.028-.015-.012-.019-.014-.019-.011-.022-.01-.02-.009-.019-.009-.019-.007-.016-.008-.02-.005-.021-.005h-.042a.436.436 0 0 0 -.086 0h-.042l-.021.005-.02.005-.021.007-.019.007-.019.009-.02.009-.017.01-.019.011-.019.014-.014.013-.032.028-1.733 1.733a.433.433 0 1 0 .613.613l.993-.993v5.019a.433.433 0 1 0 .866 0v-5.02l.993.993a.433.433 0 1 0 .613-.613z"
            transform="translate(-210.736 -.002)" />
        <path
            d="m88.926 175.126-.993.993v-5.019a.433.433 0 1 0 -.866 0v5.019l-.993-.993a.433.433 0 0 0 -.613.613l1.733 1.733.031.028.015.012.019.014.019.011.017.01.02.009.019.009.019.007.021.007.02.005.021.005h.042a.437.437 0 0 0 .085 0h.042l.021-.005.02-.005.021-.007.019-.007.019-.009.02-.01.017-.01.019-.012.019-.014.016-.012.031-.028 1.733-1.733a.433.433 0 1 0 -.613-.613z"
            transform="translate(-85.334 -167.203)" />
    </g>
</svg>